<?xml version="1.0" standalone="no"?><!DOCTYPE svg PUBLIC "-//W3C//DTD SVG 1.1//EN" "http://www.w3.org/Graphics/SVG/1.1/DTD/svg11.dtd"><svg t="1775502090838" class="icon" viewBox="0 0 1024 1024" version="1.1" xmlns="http://www.w3.org/2000/svg" p-id="20333" xmlns:xlink="http://www.w3.org/1999/xlink" width="256" height="256"><path d="M515.7888 401.53088a59.8016 59.8016 0 0 0-59.78112 59.78112v102.01088a33.792 33.792 0 0 1-33.792 33.792h-115.07712v25.33376h136.86784a59.8016 59.8016 0 0 0 59.78112-59.78112v-102.01088c0-18.65728 15.13472-33.792 33.792-33.792h117.22752v-25.33376h-139.01824zM0 401.53088v25.33376h240.39424a34.67264 34.67264 0 1 1 0 69.38624H59.78112A59.8016 59.8016 0 0 0 0 556.032v66.43712h47.77984v-67.09248c0-18.65728 15.13472-33.792 33.792-33.792h181.26848a60.0064 60.0064 0 1 0 0-120.05376H0z m700.84608 0v82.49344c0 20.72576 16.81408 37.53984 37.53984 37.53984h200.04864a37.7856 37.7856 0 1 1 0 75.5712H700.84608v25.33376h260.03456a63.11936 63.11936 0 0 0 0-126.23872H763.6992a15.09376 15.09376 0 0 1-15.09376-15.09376v-54.29248h266.71104v-25.33376H700.84608z" p-id="20334"></path></svg>