<?xml version="1.0" standalone="no"?><!DOCTYPE svg PUBLIC "-//W3C//DTD SVG 1.1//EN" "http://www.w3.org/Graphics/SVG/1.1/DTD/svg11.dtd"><svg t="1775502339852" class="icon" viewBox="0 0 1024 1024" version="1.1" xmlns="http://www.w3.org/2000/svg" p-id="32186" xmlns:xlink="http://www.w3.org/1999/xlink" width="256" height="256"><path d="M608.872 901.589c-7.878 1.941-15.982 3.768-23.976 5.254-20.896 3.88-34.824 28.771-30.944 49.779 1.942 10.275 7.766 18.953 15.758 24.549 8.222 5.823 18.61 8.334 29.23 6.395 9.592-1.828 19.181-3.883 28.543-6.166 20.666-5.139 33.226-26.146 28.088-46.813-5.025-20.781-25.919-38.136-46.699-32.998zM894.315 393.73c2.739 8.107 7.879 14.843 14.387 19.41 9.704 6.851 22.265 4.34 34.365 0.343 20.21-6.737 31.172-28.544 24.55-48.753-3.082-9.249-6.393-18.497-10.048-27.518-7.879-19.753-30.37-29.457-50.125-21.466-19.753 7.88-34.251 30.373-26.259 50.125 2.967 7.65 10.618 20.209 13.13 27.859zM734.354 846.441c-6.851 4.453-13.816 8.792-20.895 12.902-18.496 10.62-24.776 39.05-14.157 57.545a37.183 37.183 0 0 0 11.188 12.217c11.873 8.335 28.086 9.591 41.559 1.828 8.452-4.91 16.786-10.049 24.891-15.415 17.813-11.762 22.722-35.737 10.962-53.435-11.875-17.694-35.738-27.402-53.548-15.642z m257.239-349.608c-0.799-21.352-18.838-37.908-40.075-37.108-21.237 0.798-37.907 18.84-36.993 40.077 0.342 8.106 0.455 16.44 0.229 24.548-0.343 13.359 6.278 25.232 16.441 32.427 6.05 4.225 13.358 6.85 21.349 7.078 21.352 0.456 38.935-16.441 39.393-37.793 0.114-9.705 0.114-19.524-0.344-29.229z m-103.558 252.9c-17.128-12.787-41.219-14.156-54.005 2.969-4.91 6.509-10.048 13.016-15.3 19.183-13.815 16.212-11.876 45.327 4.339 59.145a26.822 26.822 0 0 0 2.853 2.168c16.1 11.417 38.591 8.792 51.608-6.509 6.281-7.42 12.445-15.07 18.269-22.949 12.79-17.012 9.248-41.219-7.764-54.007z m56.747-139.523c-20.325-6.394-46.813 4.909-53.208 25.233-2.396 7.764-5.137 15.528-8.106 23.176-6.394 16.786 4.567 35.396 18.611 45.329a40.748 40.748 0 0 0 8.563 4.568c19.868 7.65 42.246-2.397 49.782-22.265 3.425-9.133 6.736-18.383 9.591-27.633 6.393-20.432-4.911-42.014-25.233-48.408zM450.053 902.388c-29.685-7.764-77.183-26.26-108.582-40.988-0.343-0.228-0.685-0.457-1.142-0.572-7.421-3.539-14.729-7.191-21.92-11.075 0 0-0.115 0-0.115-0.113a397.51 397.51 0 0 1-38.364-23.977C135.039 685.908 69.045 474.567 196.924 293.027c27.858-39.506 39.733-53.091 77.183-85.291 0.456-0.341 10.961-12.331 35.281-28.316 154.937-71.361 285.441-78.324 425.764 15.3l-30.143 29.229c-8.336 12.103-3.196 21.009 11.417 19.638l131.075-11.76c14.729-1.37 23.521-14.043 19.524-28.201L831.86 76.89c-3.883-14.157-14.044-15.87-22.379-3.769l-30.257 43.731C676.236 47.66 552.583 21.286 429.959 42.523c-12.333 2.168-24.549 4.794-36.539 7.765h-0.228l-1.371 0.34C285.98 77.917 193.726 139.573 127.844 227.603c-0.569 0.686-1.141 1.256-1.598 2.055-2.169 2.969-4.338 5.938-6.508 9.02-3.425 4.909-6.965 10.048-10.161 15.072-0.458 0.569-0.686 1.255-1.029 1.827C54.2 339.838 27.94 437.118 32.506 536.223v1.027c0.457 9.706 1.256 19.526 2.283 29.115 0 0.571 0.229 1.257 0.343 1.827a438.063 438.063 0 0 0 4.111 29.23c17.241 99.333 64.052 188.734 134.272 258.381 0.114 0.113 0.341 0.344 0.456 0.57 0.115 0.114 0.115 0.114 0.229 0.114a477.756 477.756 0 0 0 61.542 51.38c57.887 40.762 122.283 67.707 191.36 80.152 21.009 3.767 40.99-10.16 44.757-31.17 6.396-17.468-2.395-46.924-21.806-54.461z m35.396-644.984c-13.13 0-31.057 19.295-31.057 32.426v264.32l234.291 115.888c3.54 1.827 7.192 2.626 10.96 2.626 8.564 0 31.515-6.851 41.447-18.725 16.669-27.061-6.736-56.975-18.385-63.024l-181.653-94.083V288.573c0-13.13-24.091-32.083-37.221-32.083l-18.382 0.914z" p-id="32187"></path></svg>