<?xml version="1.0" standalone="no"?><!DOCTYPE svg PUBLIC "-//W3C//DTD SVG 1.1//EN" "http://www.w3.org/Graphics/SVG/1.1/DTD/svg11.dtd"><svg t="1774765145774" class="icon" viewBox="0 0 1024 1024" version="1.1" xmlns="http://www.w3.org/2000/svg" p-id="6369" xmlns:xlink="http://www.w3.org/1999/xlink" width="256" height="256"><path d="M870.221032 829.938445L398.67162 1024 0 625.45248 194.123605 154.027168A93.602512 93.602512 0 0 1 199.27376 27.538126a94.067887 94.067887 0 0 1 132.880198 0 94.067887 94.067887 0 0 1 0 132.880198 93.478412 93.478412 0 0 1-49.857221 25.936924c-13.619988 60.529831 2.637127 126.333917 49.857221 173.398886 61.925957 61.894932 155.776669 70.923216 227.847811 28.449951l6.546281-4.591704 73.715469-66.331511a93.571487 93.571487 0 0 1 24.013372-90.531034 94.098912 94.098912 0 0 1 132.911223 0 94.005837 94.005837 0 0 1 0 132.849173 93.416362 93.416362 0 0 1-90.531034 24.013372l-66.672786 71.357566-4.312479 9.028284c-42.349164 72.040117-33.320881 166.014929 28.480976 227.816786 47.220094 47.189069 112.90008 63.415159 173.429911 49.826196a93.695587 93.695587 0 0 1 25.967949-49.826196 93.974812 93.974812 0 0 1 132.880198 132.849173c-34.282657 34.685982-89.290033 36.206209-126.209817 5.274255z" fill="#FFD703" p-id="6370"></path></svg>